<svg width="250" height="252" viewBox="0 0 250 252" fill="none" xmlns="http://www.w3.org/2000/svg">
<rect y="41.9813" width="206.519" height="209.542" fill="#F96464" fill-opacity="0.8"/>
<rect x="43.4806" y="20.9906" width="206.519" height="209.542" fill="#CCD9DB" fill-opacity="0.88"/>
<path fill-rule="evenodd" clip-rule="evenodd" d="M229.237 0H22.7171V209.542H229.237V151.932H229.398V141.937H229.237V0ZM229.237 141.937H22.9897V151.932H229.237V141.937Z" fill="#3F3F3F"/>
<g filter="url(#filter0_i)">
<path d="M160.647 87.0388C149.893 63.7529 156.828 56.2807 156.907 56.2026C157.033 56.0854 157.033 55.89 156.946 55.7337C156.858 55.597 156.672 55.5384 156.496 55.597C156.34 55.6556 141.376 61.8971 143.261 75.7182C139.149 72.0261 119.985 53.1062 131.726 30.8361C131.775 30.6896 131.765 30.5236 131.648 30.4064C131.55 30.2989 131.374 30.2599 131.247 30.3087C130.983 30.4161 124.996 32.9752 120.249 39.4316C115.844 45.3801 111.761 55.9095 117.27 72.2019C119.272 79.8597 115.492 86.0719 113.46 88.7091C113.968 86.8923 114.584 83.8155 114.486 80.2797C114.32 75.1029 112.464 67.953 104.484 63.3329C104.357 63.2645 104.21 63.2645 104.093 63.3524C103.966 63.4501 103.917 63.5869 103.956 63.7431C103.986 63.8799 106.965 77.4861 101.729 83.7862C97.2168 89.217 92.7921 98.672 95.1851 107.434C97.1972 114.749 103.468 120.337 113.831 124.038C116.508 124.849 119.047 125.474 121.851 125.992C122.046 126.031 122.222 125.924 122.271 125.748C122.329 125.562 122.222 125.367 122.075 125.289C116.752 122.974 111.253 118.168 115.336 108.401C119.223 99.9907 118.52 95.6539 117.738 93.7882C119.741 94.9213 123.746 97.8613 122.739 103.019C122.7 103.165 122.779 103.331 122.915 103.409C123.062 103.487 123.218 103.478 123.335 103.38C123.453 103.282 135.457 93.4171 130.007 81.3248C132.693 82.8779 139.813 88.2989 135.613 100.733C134.216 106.076 138.016 109.924 138.182 110.09C138.309 110.198 138.504 110.237 138.651 110.129C138.788 110.042 138.846 109.856 138.788 109.69C138.661 109.368 135.818 101.7 141.982 97.4804C141.64 99.4437 141.132 104.298 143.349 106.945C145.322 109.338 147.237 113.245 146.66 117.064C146.25 119.75 144.668 122.007 141.913 123.794C141.757 123.892 141.708 124.097 141.777 124.263C141.864 124.439 142.06 124.517 142.236 124.458C148.995 122.222 157.873 117.777 161.741 109.289C164.574 103.067 164.222 95.566 160.647 87.0388Z" fill="#F96464"/>
</g>
<g filter="url(#filter1_i)">
<path d="M155.134 82.7509C144.38 59.465 151.315 51.9928 151.394 51.9147C151.52 51.7975 151.52 51.6021 151.433 51.4458C151.345 51.3091 151.159 51.2505 150.983 51.3091C150.827 51.3677 135.863 57.6092 137.748 71.4303C133.636 67.7382 114.472 48.8183 126.213 26.5482C126.262 26.4017 126.252 26.2357 126.135 26.1185C126.037 26.011 125.861 25.972 125.734 26.0208C125.47 26.1282 119.483 28.6873 114.736 35.1437C110.331 41.0922 106.248 51.6216 111.757 67.914C113.759 75.5718 109.979 81.784 107.947 84.4212C108.455 82.6044 109.071 79.5276 108.973 75.9918C108.807 70.8149 106.951 63.6651 98.9709 59.045C98.8439 58.9766 98.6974 58.9766 98.5802 59.0645C98.4532 59.1622 98.4043 59.299 98.4434 59.4552C98.4727 59.592 101.452 73.1982 96.2164 79.4983C91.7038 84.9291 87.2791 94.3841 89.6721 103.146C91.6842 110.462 97.955 116.049 108.318 119.751C110.995 120.561 113.534 121.186 116.338 121.704C116.533 121.743 116.709 121.636 116.758 121.46C116.816 121.274 116.709 121.079 116.562 121.001C111.239 118.686 105.74 113.88 109.823 104.113C113.71 95.7028 113.007 91.366 112.225 89.5003C114.228 90.6334 118.233 93.5734 117.226 98.7307C117.187 98.8772 117.266 99.0433 117.402 99.1214C117.549 99.1996 117.705 99.1898 117.822 99.0921C117.94 98.9944 129.944 89.1292 124.494 77.0369C127.18 78.59 134.3 84.011 130.1 96.4451C128.703 101.788 132.503 105.636 132.669 105.802C132.796 105.91 132.991 105.949 133.138 105.842C133.275 105.754 133.333 105.568 133.275 105.402C133.148 105.08 130.305 97.4121 136.469 93.1925C136.127 95.1558 135.619 100.01 137.836 102.657C139.809 105.05 141.724 108.957 141.147 112.777C140.737 115.463 139.155 117.719 136.4 119.506C136.244 119.604 136.195 119.809 136.264 119.975C136.351 120.151 136.547 120.229 136.723 120.171C143.482 117.934 152.36 113.49 156.228 105.002C159.061 98.7796 158.709 91.2781 155.134 82.7509Z" fill="#CCD9DB"/>
</g>
<defs>
<filter id="filter0_i" x="94.513" y="30.2879" width="69.1149" height="99.7121" filterUnits="userSpaceOnUse" color-interpolation-filters="sRGB">
<feFlood flood-opacity="0" result="BackgroundImageFix"/>
<feBlend mode="normal" in="SourceGraphic" in2="BackgroundImageFix" result="shape"/>
<feColorMatrix in="SourceAlpha" type="matrix" values="0 0 0 0 0 0 0 0 0 0 0 0 0 0 0 0 0 0 127 0" result="hardAlpha"/>
<feOffset dy="4"/>
<feGaussianBlur stdDeviation="2"/>
<feComposite in2="hardAlpha" operator="arithmetic" k2="-1" k3="1"/>
<feColorMatrix type="matrix" values="0 0 0 0 0 0 0 0 0 0 0 0 0 0 0 0 0 0 0.25 0"/>
<feBlend mode="normal" in2="shape" result="effect1_innerShadow"/>
</filter>
<filter id="filter1_i" x="89" y="26" width="69.1149" height="99.7121" filterUnits="userSpaceOnUse" color-interpolation-filters="sRGB">
<feFlood flood-opacity="0" result="BackgroundImageFix"/>
<feBlend mode="normal" in="SourceGraphic" in2="BackgroundImageFix" result="shape"/>
<feColorMatrix in="SourceAlpha" type="matrix" values="0 0 0 0 0 0 0 0 0 0 0 0 0 0 0 0 0 0 127 0" result="hardAlpha"/>
<feOffset dy="4"/>
<feGaussianBlur stdDeviation="2"/>
<feComposite in2="hardAlpha" operator="arithmetic" k2="-1" k3="1"/>
<feColorMatrix type="matrix" values="0 0 0 0 0 0 0 0 0 0 0 0 0 0 0 0 0 0 0.25 0"/>
<feBlend mode="normal" in2="shape" result="effect1_innerShadow"/>
</filter>
</defs>
</svg>
